# xmcd
#
# Track frame offsets: 
#        150
#        49740
#        85384
#        166634
#        187271
#        261168
#
# Disc length: 4146 seconds
#
# Revision: 0
# Processed by: cddbd v1.5.2PL0 Copyright (c) Steve Scherf et al.
# Submitted via: ExactAudioCopyFreeDBPlugin 1.0
#
DISCID=4b103006
DTITLE=Pigeons Playing Ping Pong - Live at 2017 Peach Music Festival
DYEAR=2017
DGENRE=Funk
TTITLE0=Poseidon
TTITLE1=Avalanche
TTITLE2=Medley:  Spacejam - The Hop - F.U.
TTITLE3=Doc
TTITLE4=Medley:  Burning Up My Time - Kashmir - Burning Up My Time
TTITLE5=Horizon
EXTD=
EXTT0=
EXTT1=
EXTT2=
EXTT3=
EXTT4=
EXTT5=
PLAYORDER=
